# xmcd
#
# Track frame offsets: 
#        150
#        20918
#        41373
#        55138
#        69023
#        89343
#        102283
#        109706
#        123751
#
# Disc length: 1922 seconds
#
# Revision: 0
# Processed by: cddbd v1.5.2PL0 Copyright (c) Steve Scherf et al.
# Submitted via: ExactAudioCopyFreeDBPlugin 1.0
#
DISCID=6a078009
DTITLE=Benoît Bélair - Tiburon Blues Band - Blues Y Latino
DYEAR=1999
DGENRE=Blues
TTITLE0=Guillermo Rodrigues - Negra Tomasa
TTITLE1=Carlos Puebla - Hasta Siempre
TTITLE2=John Lee Hooker - Dimples
TTITLE3=William Broonzy - Hey Hey
TTITLE4=Robert Johnson - Walking Blues
TTITLE5=Aaron Walker - T-Bone Shuffle
TTITLE6=Pablo Milanés - Siempre Te Vas
TTITLE7=Sergio Endrigo - Lejos De Los Ojos
TTITLE8=Benoît Bélair - Méoe
EXTD=
EXTT0=
EXTT1=
EXTT2=
EXTT3=
EXTT4=
EXTT5=
EXTT6=
EXTT7=
EXTT8=
PLAYORDER=
